<svg xmlns="http://www.w3.org/2000/svg" viewBox="0 0 400 820" width="400" height="820"><path d="M0,23.3L48.9,0M0,57L87.7,0M0,97.2L113.3,0M0,147.7L132,0M0,216L5.5,207.9L146.7,0M0,317.7L43.7,230.3L159,0M0,493.2L3.5,483.2L84.6,247.4L169.7,0M14.3,820L27.6,754L78.1,503.4L127.3,259L179.5,0M134.4,820L137.8,768.7L154.7,513.7L171.2,264.9L188.8,0M252.4,820L248.9,768.7L232,513.7L215.5,264.9L197.9,0M372.4,820L359.1,754L308.7,503.4L259.4,259L207.2,0M400,531.8L383.3,483.2L302.2,247.4L217,0M400,344.2L343,230.3L227.8,0M400,235.6L381.2,207.9L240,0M400,162.6L254.8,0M400,108.6L273.5,0M400,65.6L299.1,0M400,29.6L337.9,0M0,779.1L21.6,783.8L49.9,789L78.4,793.3L107.1,796.6L135.8,799L164.6,800.4L193.4,800.9L222.2,800.4L251,799L279.7,796.6L308.3,793.3L336.8,789L365.1,783.8L393.3,777.6L400,775.9M0,657L20.7,662.3L45,667.6L69.5,672.1L94.1,675.8L118.8,678.7L143.6,680.7L168.5,682L193.4,682.4L218.3,682L243.1,680.7L267.9,678.7L292.6,675.8L317.3,672.1L341.7,667.6L366,662.3L390.2,656.1L400,653.3M0,539.8L5.7,541.7L26,547.6L46.5,552.8L67.2,557.3L88,561.2L109,564.3L130,566.7L151.1,568.5L172.2,569.5L193.4,569.9L214.5,569.5L235.7,568.5L256.8,566.7L277.8,564.3L298.7,561.2L319.5,557.3L340.2,552.8L360.7,547.6L381,541.7L400,535.5M0,423.7L4.7,425.6L21.2,431.6L37.9,437L54.7,441.9L71.7,446.2L88.9,449.9L106.1,453.1L123.4,455.7L140.9,457.7L158.3,459.2L175.8,460.1L193.4,460.3L210.9,460.1L228.4,459.2L245.9,457.7L263.3,455.7L280.6,453.1L297.9,449.9L315,446.2L332,441.9L348.8,437L365.5,431.6L382,425.6L398.3,419.1L400,418.3M0,303.2L5.7,306.2L18.3,312.2L31,317.8L43.9,323L56.9,327.7L70.2,332L83.5,335.9L97,339.3L110.5,342.3L124.2,344.8L138,346.9L151.8,348.5L165.6,349.6L179.5,350.3L193.4,350.5L207.3,350.3L221.1,349.6L235,348.5L248.8,346.9L262.5,344.8L276.2,342.3L289.8,339.3L303.2,335.9L316.6,332L329.8,327.7L342.8,323L355.7,317.8L368.5,312.2L381,306.2L393.3,299.8L400,296M0,167.3L5.6,171.8L13.7,177.9L22,183.7L30.4,189.2L39.1,194.5L47.9,199.5L56.8,204.1L65.9,208.5L75.2,212.6L84.6,216.3L94.1,219.8L103.7,222.9L113.4,225.7L123.2,228.2L133.1,230.4L143,232.2L153,233.7L163.1,234.9L173.2,235.7L183.3,236.2L193.4,236.4L203.5,236.2L213.6,235.7L223.7,234.9L233.7,233.7L243.7,232.2L253.6,230.4L263.5,228.2L273.3,225.7L283,222.9L292.6,219.8L302.1,216.3L311.5,212.6L320.8,208.5L329.9,204.1L338.9,199.5L347.7,194.5L356.3,189.2L364.8,183.7L373,177.9L381.1,171.8L389,165.4L396.6,158.8L400,155.7M27.9,0L29.1,2.8L31.5,8.2L34.2,13.6L37,18.8L40,23.9L43.1,29L46.5,33.9L49.9,38.7L53.6,43.4L57.4,47.9L61.3,52.4L65.4,56.7L69.6,60.9L74,64.9L78.5,68.8L83.1,72.5L87.8,76.1L92.7,79.5L97.7,82.8L102.7,85.8L107.9,88.8L113.2,91.5L118.5,94.1L124,96.5L129.5,98.7L135.1,100.7L140.7,102.5L146.4,104.2L152.2,105.6L158,106.9L163.8,108L169.7,108.9L175.6,109.6L181.5,110.1L187.4,110.4L193.4,110.4L199.3,110.4L205.2,110.1L211.2,109.6L217,108.9L222.9,108L228.8,106.9L234.6,105.6L240.3,104.2L246,102.5L251.7,100.7L257.3,98.7L262.8,96.5L268.2,94.1L273.6,91.5L278.8,88.8L284,85.8L289.1,82.8L294,79.5L298.9,76.1L303.6,72.5L308.2,68.8L312.7,64.9L317.1,60.9L321.3,56.7L325.4,52.4L329.4,47.9L333.1,43.4L336.8,38.7L340.3,33.9L343.6,29L346.7,23.9L349.7,18.8L352.5,13.6L355.2,8.2L357.6,2.8L358.8,0" fill="none" stroke="#F6F1E4" stroke-opacity=".07" stroke-width=".6" stroke-dasharray="2 5"/><path d="M254.2,546L254.2,546L254.2,546ZM143.4,466.4L143.4,466.4L143.4,466.4ZM140.2,463.2L140.2,463.2L140.2,463.2ZM133.2,410.9L130.7,411.8L132.9,408.7ZM141.5,440L137,442.1L135.2,441.6L131.9,438.5L128.6,437.3L126.4,438.2L124.4,435.1L125.7,434L130.7,432.5L133.8,429L133.5,424.9L129.6,425.6L133.9,421.6L140.2,420.4L142.2,416.9L141.7,414.9L143,412.1L141.1,412.4L138.9,408.4L140.4,403.1L136.9,404.7L133.3,404.6L131.6,403.4L130.8,405L129.6,403L133.4,396.4L132.3,394L133.1,390.2L129.6,392.2L127.8,396.8L126.5,396.6L128.5,389.6L132.1,382.2L129,384.3L126.4,381.9L130.6,376.8L129.4,375L131,373.3L130.2,371.8L131.3,369.6L133.9,370L132.8,368L133.4,366L135.4,365.9L135.4,363.1L137.4,363.5L147.1,363.2L145.8,366.6L140.8,370L141.4,371.6L139.5,374.1L143.9,373.2L151.7,374L153.3,376.5L149.8,383.1L147.4,386.2L143.5,387.8L146.8,388.9L142.1,391.6L144,392.6L146.8,392.1L149.4,393.7L152.1,397.6L153.6,406.5L157.3,409.8L160.8,414.3L159.9,415.3L161.7,419.9L159.1,418.8L161.7,421.5L162.9,424.9L160.7,427.6L162.2,428.7L164.1,427.1L167.4,427.4L171.3,429.8L171.7,432.9L170.3,437L168.3,439.6L164.6,440.7L165.5,442.4L163.4,442.9L164,444.4L169,444.9L168.7,446.9L160.3,451L157.5,450.2L153.5,450.5L149.2,448.7L148.4,450.2L144.9,450.2L144.7,451.5L141.2,451L138.2,449.6L135.3,450.2L133.7,453.4L132.1,454.3L129.7,452.2L125.7,452.8L121.9,455.3L119.8,453L121.4,452.7L127.4,447.7L128.1,445.6L130.7,443.6L137.8,444.2ZM133.4,420.4L132,422.3L131.1,419.4ZM150.6,356.9L150.6,356.9L150.6,356.9ZM160.3,343.5L160.3,343.5L160.3,343.5ZM158.8,343.1L160.2,344.3L158.9,349L156.6,345.8L158.3,345.3L157.5,343.6ZM162,340.3L162,340.3L162,340.3ZM146.6,361.4L146.6,361.4L146.6,361.4ZM147.9,362.1L147.9,362.1L147.9,362.1ZM147.5,358.9L148.5,360.5L145.9,359.3ZM149.6,357.3L149.6,357.3L149.6,357.3ZM123.3,382.9L123.3,382.9L123.3,382.9ZM130.7,396.6L129.3,396L129.7,393.6ZM127.9,386.3L125.4,386.5L126.4,382.7L128.2,384.7ZM125.1,390.4L124.9,393.5L123.5,393.8L123,391.2ZM125.9,391.8L126.5,389.4L127.9,388.8ZM128.7,363.9L126.2,366.5L126.8,367.4L123.3,369.9L123.8,364.6L128.7,362.3ZM125.9,379.1L125.9,379.1L125.9,379.1ZM127.6,373.3L127.3,375.4L129.9,376.7L128,378.5L127.7,376.7L126,376.4L123.9,373.4L127.2,371.6ZM121.7,370.4L121.7,370.4L121.7,370.4ZM120.4,376.5L120.4,376.5L120.4,376.5ZM119.2,378L119.2,378L119.2,378ZM121.6,410.3L118.8,410.2L116.9,406.1L114.4,408.9L111.5,407.3L110.2,404.9L112.9,403.1L117,398.5L121.9,397.6L124,398.2L126.5,404.7L125.8,408.9L122.8,410.9ZM151.5,451.1L149.7,452.1L148.4,450.7ZM400,463.8L397.1,465.6L391.2,465L392.4,463.3L388.8,463.2L394.7,461.9L395.7,459.9L388.2,462.1L383.4,465.2L383,470.5L381.8,473.7L378,477.1L380.2,481.2L376.2,480.9L373.4,483.8L368.6,482.8L372,474.9L370.6,471L371.8,469.5L377.3,469.6L379.1,468.2L377.3,467.5L375.9,464.6L373.3,463.9L372.1,461.1L368.7,459.8L368.1,456.8L366.4,454.6L363.7,453.8L361.7,454.8L354.1,452.8L352.2,454.6L349.5,455.2L348.3,457L346.3,458.2L345.9,460.7L341.2,463L337.8,466.1L334.9,464.4L332.2,465.5L326.5,465.9L324.3,465.4L322.8,467.3L321.6,465.8L316.4,463.7L317.6,456L319.6,456.1L317.2,450.8L318.9,446.4L322.2,440.2L323.9,439.4L323.6,434.6L319.4,430.4L318.5,428.3L320.6,427L322.5,423.3L328.2,421L332.5,420L340.9,419.4L342.2,420.6L351,418.7L352.2,419.5L354.2,416.7L356.4,418.7L361.3,416L364.5,417.3L363.3,413.9L364.5,408.3L369.2,405.9L372.4,404.5L373,402L375.7,401.6L376.9,400.1L380.5,398.7L387,402.7L385.7,404.4L388.2,408.5L393.6,406.8L395.8,407.7L398.6,412.5L400,413.2L400,463.8ZM393.3,465.6L393.3,465.6L393.3,465.6ZM368.2,543.9L368.2,543.9L368.2,543.9ZM400,573.2L398.3,573.4L393.2,576.6L397,571.2L389.5,573.7L390.6,571.7L387.2,570.1L385,567.3L385.4,563.8L376.5,563L377.3,558.7L378.6,560.7L382.9,559.5L379.1,557.2L380.6,554.7L376.6,551.2L376.9,548L371.4,550.7L370.4,545L373.6,539.3L377.8,537.4L379.8,538.4L382.6,536.8L392.1,533.3L390.6,531.4L397.3,527.9L393.2,528.4L390,527.2L391.4,524.2L396.4,523.4L399.6,521.7L400,521.7L400,573.2ZM378.7,519.7L378.8,521L382.9,524.2L389.3,524.8L388,528.2L382.9,528.6L377.9,531.4L376.9,535L373.6,538.2L370.3,544L369.9,541.4L373.3,536.8L367.9,538.6L366.9,537.5L368.6,534.4L367.7,531.4L369.6,529L368.6,527L366.2,526.4L367.5,523.3L372.7,520.3L375.1,521.4ZM254.9,643.4L255.7,652.1L249.5,656.4L243.1,663.9L244.7,668.8L244.6,671.6L241.8,676.4L238.2,678.4L232.4,657.6L225.2,652.6L222.6,646.5L219.2,644.6L216.8,638.3L216.9,635.5L223.4,627.9L224.5,622.6L222.8,615.2L223.5,609.6L222.2,608.2L225.2,603.1L230.1,600L234.9,598.1L239.5,599.3L241.8,604.5L247.2,600.2L248,602.4L245.4,606.9L243.1,608.9L244,613.8L248,616.3L249.4,620.6L244.6,628.8L240.5,632.9L241.7,636.9L244.6,638.8L247,638.3L247.3,640.3L250.6,639.5L252,642.9ZM251.3,625.9L251.3,625.9L251.3,625.9ZM249.3,637.8L249.3,637.8L249.3,637.8ZM226.7,486.4L226.9,489.1L227.4,491.4L232,493.3L234,493.1L234.1,496.5L232.3,495.9L230.6,498.8L227.5,499.6L225.4,497.9L225.4,500L223.5,505.1L219.5,500.7L218.7,498.6L214.6,504.5L208.7,504.6L206.8,502.1L206.6,499.3L204.1,499.2L201.6,502.3L201.4,499.3L208.2,489.4L208.5,487.5L211.2,487.8L212.6,486.3L218.5,486.1L219.9,484.1L224.1,484.9ZM275.6,366.8L274.3,368.5L275.5,371.7L272,377.7L272.5,375.8L271.1,374L270.7,370.8L272.5,367.4ZM263.4,386.2L262.3,383.3L264.6,374.2L265.2,374.4L264.1,380.3ZM229.7,359.7L231.3,360.8L231.8,356.7L230.8,353.4L232,350.3L234.8,347.3L235,343.4L232.8,337.5L234.8,336.8L235.5,333.3L231.3,329.6L231.4,323.2L230.1,319.8L230.2,315.2L228.8,312.1L229.4,308.6L231.4,304.4L234.4,302.6L237.7,302.9L238.4,301L237.7,297.8L235.4,296.7L238.4,288.1L238.4,281.8L237.5,278.6L239.8,277.9L241.6,276.1L241,274L244.5,266.9L242.6,262.9L244.3,260.2L244.7,257L246.6,254.3L249.4,255.4L250.1,252.5L249.3,248.8L250.2,248.2L257.3,249.3L258.2,247.7L256.9,247.2L257.9,244.5L256.4,241.6L258.4,241L265.4,245.6L269,246.3L273.9,250.4L273.5,251.4L274.5,256.2L275.8,256.2L276,259L278.6,262.8L278.3,266.8L279.3,270L282.3,273.8L280.1,274.1L277.7,275.8L275.7,274.7L274,275.4L274.1,278.2L271.4,281.1L272.1,283.8L270.9,288.2L273.6,291.6L271.9,295.3L271.3,299L267.8,302.7L267.2,304.5L265.3,304.7L264.2,307.7L262.2,308.7L262,312L259.3,313.3L260.5,315.7L258.4,317.7L257.4,317.2L258.6,320.9L258.4,324.4L259.2,326.3L257.8,326.1L259.9,337.3L262.4,338.8L263.9,337.9L269.4,342.7L271.1,346L267.6,350.5L269.2,350.3L268.6,353.8L264.4,357.3L262,360L257.7,360.9L261.1,360.9L260.5,362.7L261.6,365L261,369.6L262.1,372.9L261.5,375.6L262.1,377.7L260.3,387.4L252.7,389.4L250.1,393.1L251.2,396.3L250.4,397.9L248.1,397.8L245.2,399L242.4,398.6L242.3,394.3L239.1,389.2L240.9,389.4L239.8,387.5L241,385.4L237.9,382.6L233,374L232.6,371.3L230.9,369.8L229.6,365.9L228.6,359.3ZM275.9,365.8L275.9,365.8L275.9,365.8ZM269.4,354.5L269.4,354.5L269.4,354.5ZM269.6,349.5L269.6,349.5L269.6,349.5ZM163.9,583.9L163.9,583.9L163.9,583.9ZM177.6,572L180.2,572.4L178.4,576.5L176.9,577.4L171,573.8L177.8,570ZM187.4,571.6L183.6,570.1L186.8,569.5ZM162.7,581.1L162.7,581.1L162.7,581.1ZM139.3,530L142.2,532.1L141.5,533.9L147.1,535.8L148.4,537.4L150.7,537.3L152.7,538.9L158.1,539.3L158.7,537.6L163.9,539.5L164.5,540.6L166.7,541.7L169.3,543.5L174.3,543.8L178.9,542.9L179,548.3L177,550.2L171.2,553.3L169.2,555.2L160.4,557.3L157.6,559.8L159,561L156.5,562L150.4,569.8L147.9,573.6L148.6,578.7L151.9,582.3L146.6,585.6L144.1,588.5L142.1,594.8L137.6,594.6L133.1,597.9L129.2,603L125.6,601.9L123.8,602.8L119.6,601.9L109.7,601.1L106.7,603.1L102.2,603.5L100,606.4L97.5,607.3L94.1,605L91.3,595.9L88.3,592.7L83.7,592.2L83.6,587.6L87.1,583.4L88.6,583.2L86.6,578.2L87.6,575.5L90.6,572.1L89.2,571L87.1,564.8L91.4,564.9L93.1,561.7L92.5,559.5L94.4,558.3L94.6,550.9L101.3,546.1L98.8,544.2L98.7,541.2L94.5,540.1L92.1,541.3L85.6,539.5L86.2,537L81.3,538.2L80.7,536.3L82.6,534.8L81.8,528.7L79.7,526.4L80.6,524.3L83.3,523L88.4,522.8L88.6,521.3L93.3,520L96.4,522.4L108.9,524.5L117.7,527.5L125.1,527.3L129.3,529.4L130.8,528.6L134.9,530.4ZM5.9,671.5L5.9,671.5L5.9,671.5ZM0,677.2L3,672.9L3.8,674.9L1.9,678.4L0,678.6L0,677.2ZM317.6,456L316.4,463.7L314,465L311.2,463.2L304.5,465L303.9,467.7L301.2,470.1L299,469.5L298.1,470.9L293.5,473L293.5,475.4L286.5,476.8L281.7,475L279,471.2L279.3,468.8L280.5,465.7L284.5,464.8L286.4,462.5L286.6,460.3L289.2,457.2L290.8,456.7L293.2,457.5L294.9,455L297.6,457L297.9,458.8L303.5,455.5L310.5,453.8L313.7,455.3ZM279.6,492L273.5,496.2L274,500.1L271.5,501.6L272.4,504.4L268.7,504.9L266.1,503.3L265,505.2L261.4,506.3L258.9,505.6L260,504.7L258.5,502.1L258.5,498.3L256.5,497.6L258.6,494.6L264.7,494.9L268.2,492.2L275.2,490.6L275.9,488.5L277.3,488.4ZM331,507.1L329.4,510L330,513.3L331.9,515.7L335.8,517.8L334.5,521.5L332.7,522.4L334.2,526.6L333.1,528.3L327.1,530.4L327.5,525.5L324.5,525.3L321.1,522.2L318.4,520.9L316.1,526.2L315.9,525.5L309,523.4L305.5,520.4L307.5,518.2L305,515.7L307.5,514.4L303.6,512.2L303.2,509.8L304,505.7L301.4,506.3L301.7,502.6L303,501.6L300.3,500.6L298.5,495L302.7,491.7L308.1,491.2L312.8,494.2L313.4,497.1L319.1,499.1L319.3,502.8L325.6,504.9L328.3,502.4L330.2,503.1L328.9,505.3ZM252.4,524.1L252.4,524.1L252.4,524.1ZM299.6,52.4L298.5,53.1L298.3,51.7ZM400,413.2L398.6,412.5L395.8,407.7L393.6,406.8L388.2,408.5L385.7,404.4L387,402.7L380.5,398.7L376.9,400.1L375.7,401.6L373,402L372.4,404.5L369.2,405.9L367.2,404.2L365.1,399.3L362.6,397.7L362.9,395.5L367.8,394.9L370.3,391.1L367.3,388L362.6,388.4L361.9,385.8L359.1,385.2L356,381.5L353.3,380.5L353.3,377.3L351.5,375.3L351,372.1L347.6,370.8L344.3,371.2L342.3,373.8L340.7,371.4L338.8,371.1L337,372.4L335.5,371.3L332.9,371.6L331.3,367.4L328.5,364.6L327.6,365.1L327.4,360.6L323.8,358.4L324,355.3L325,354.4L322.1,350.4L320.1,344.4L321,336.6L320.2,334.1L322,333.9L322.5,331.9L324.8,331.4L325.3,329.2L330.9,328.8L330.9,327.9L327.6,326.2L324.2,327.4L321.3,326.1L319.6,323.2L316.4,325.8L318.3,321L321.3,315.4L326.7,298.4L326.7,294.6L323.8,291.8L319,289.9L316.1,288L317.5,284.3L316.8,282.4L314.3,281.2L312.7,277L309.8,275.5L310.2,273.7L309,272.7L308.6,268.7L309.4,267.1L307,262.9L300.7,255.9L300.2,254.5L301.7,247L301.4,245.4L297.3,242.2L294.2,241.7L292.2,238.7L292.3,235.1L290.5,234.1L292.3,232.1L292.9,228.4L294.9,226.6L294.9,223.6L297.8,223.8L296.8,221L299.4,221.3L301.1,218.8L300.4,217.6L304.9,218.4L305.6,219.7L302.3,220.4L303.9,222.3L307.9,221.1L308.9,224.4L309.6,222.1L311.7,221.3L314.5,221.2L315.9,220L318.5,219.9L328.1,222.1L332.5,224.4L334.2,223.9L338.4,225.2L338.6,223.9L342.8,226.1L345.7,226.1L348.7,230.4L349.9,230.5L351.3,234.8L350.6,240.1L349.6,242.4L347.1,245.9L343.7,248.4L340.1,249.2L338.3,248.8L330,250.4L326.1,249.3L319.8,250L316,248.3L316.1,247.4L311.4,248.3L314.6,249L314.8,250L319.6,252.9L321.9,253.1L321.1,254.8L324.8,254.7L329.2,257.3L330,261.3L329.6,262.9L333.2,266.5L335.3,270.9L338.8,272L339.6,271.3L342.7,272.3L344.6,273.8L350.4,273.5L352.2,270L350.2,267.3L346.4,267.9L341.4,264.7L341.5,260.6L344.6,260L347.8,261.4L356.9,260.8L357.3,258.2L358.9,257.3L357.1,255.4L353.2,252.8L352,250.2L353.4,247.6L353.8,244.7L356.2,241.4L357.1,235.7L359.2,235.9L361.8,234.5L367.6,236.6L366.2,234.4L365.3,229.1L362.1,225.3L359.8,225.4L358.4,222.9L356.6,216.4L354.5,213.2L350,212L349.9,211.1L352.8,211.2L356.4,208.7L360,208L366,211.2L366.8,212.4L363,216L362.4,220.1L363.1,221.3L366.5,221.6L370.1,223.9L372.4,223.2L375.8,218.7L373.7,213.4L372.8,212.2L375.6,208.4L374,207.5L375.7,206.4L378.6,197.7L381.4,193L383.9,194.1L384.3,191.7L382.1,191.5L382.5,189.5L384.4,184.2L386.7,182.4L385.1,184.6L386.8,187.7L388.8,189.1L387.7,192.4L390.4,190.9L392.1,188.9L393.6,188.8L392.6,187L392.9,184L394.4,181.5L398.7,179.5L399.5,173.6L400,172.8L400,413.2ZM400,113.9L398.4,111.8L396.6,108.5L397.7,108.3L400,105.4L400,113.9ZM282.7,72.9L284.9,72.2L286.7,73.9L283.8,74L284.2,75.9L283.3,77.2L283.1,79.2L281.9,77.9L281.5,78.7L279.5,78.7L282.2,74.8ZM287.3,68.5L288.4,68L291.8,69.5L291.6,72.1L289.9,74L290.3,75.8L289.1,76.7L290.8,79L289.8,79.1L290.1,80.5L288.5,81.3L288.4,79.7L286.7,81.3L285.2,80.3L285.7,76.7L286.6,75L288.3,74.8L286.3,71.1ZM362.5,85.3L361.8,90.8L359.8,97.6L358.9,99.4L356.7,107.7L357.3,111.6L357,113.3L358.2,113.3L358.4,118L356.9,118.1L358,120.1L356.7,121.4L358.7,123.1L359.4,125.1L358.6,127.7L360.5,129.5L358.9,130.6L360.8,131.5L361.6,135.6L360.7,137.4L357.8,138.8L355.6,139L354.4,141.5L352.7,139.9L349.8,138.6L350.7,134.9L349.1,128.9L350.5,126.8L348.1,126.4L347.7,124.1L347.9,121.3L346.3,121.9L344.9,119.9L346.9,119.8L345.6,116.8L347.6,115.3L346.1,111.3L346.4,107.8L348,104.2L347.6,102.6L349.3,101.5L348.1,99L352.4,95.8L354.3,91.3L355.1,86.2L354.3,84.6L354.1,81.4L354.7,79.2L357.3,77.8L359.5,78.1L361.6,79.9L362.9,84ZM357.5,139.7L361.4,138.3L363.6,143L362.8,144L364,147.7L366.3,149.7L367.8,152.9L374.4,156.7L380.1,158.5L383.8,158.5L383.4,161L379.8,162L381.6,162.4L378.2,163.6L374.9,166.4L369.7,167.4L369.1,165.3L370.3,163.2L365.8,162.6L364.9,161.1L360.5,165.1L357.3,163.1L355.7,159.9L357.3,157.8L357.1,154.9L355.4,151.1L353.8,151.3L353.6,149.3L354.9,147.7L353.1,146.3L352.7,144.7L354.3,142.7L355.5,140.1ZM358.5,0L355.1,2.5L352.2,2.9L351.1,1.5L351,0L358.5,0ZM373.4,0L373.2,0.5L371.8,0.6L371.2,2.4L366.8,2.2L364.5,4.3L363.1,2.8L361.5,0L373.4,0ZM336.8,262.6L337.5,264.8L335.6,263.4ZM358.1,232.8L358.1,232.8L358.1,232.8ZM364.7,163.8L367.1,165.1L367.5,166.7L364.4,165.8L363.4,164.5ZM397.9,8.4L398.1,9.8L397,11.2L396,7ZM388.3,25.6L387.4,26.3L387,24.6ZM293.6,78.6L291.9,78.3L292,77L293.3,77.1ZM297.2,78.2L295.5,79.7L294.4,79.6L295.1,77.2ZM287.2,66.6L286,66.2L286.2,65.2ZM302.2,68.9L302.2,68.9L302.2,68.9ZM298.6,68.2L297.4,69L296.5,67.5ZM312.6,65.8L312.2,66.7L310.5,66.1L310.8,64.4ZM300.9,56.1L303.7,58.6L302,59.8L298.7,58.4L299.2,56.1ZM371.1,191L371,195.7L368.4,199.2L365.1,197L363.6,193.7L364.2,191.3L365.4,190.2ZM311.8,52.5L309.3,52.6L308.8,50.3L310.1,48.4L308.6,46.4L310.3,45.3L312.8,47L313.2,50.1ZM308,66.8L306.8,67.5L303.1,64.2L305.9,62.4L308.3,62.5L307,64.1ZM308.6,53L310.5,55.4L310.2,56L310.7,59L308.7,59.4L308.2,61L307,60.7L304.5,57.1L305.8,56.2L307.1,53.3ZM305.8,53.4L303.8,54.6L303.6,52.8L304.9,51.4ZM299.3,72.6L298.2,73.7L296.2,73.6L296.3,71.1L297.2,70.5L299.2,71.2ZM304.4,65.7L306.7,68.4L304.1,70.3L302.6,67.3ZM294.9,51.8L296.7,51.9L296.6,53.7L297.9,54.7L298.1,56.8L296.1,56.5L296.2,57.6L294.7,58.6L293.2,57.5L294.4,56.7L293.8,52.8ZM293.6,60.7L295.7,60.7L296.9,59.7L301.6,60.1L301.2,62.7L299.5,64.6L297.4,64.2L295.1,64.9ZM303.3,43L302.2,44.1L300.3,44.5L301,43.1L302.6,42.1ZM294.1,49.3L292.9,48.3L294.3,46.5L295.4,47.4ZM361.8,4.1L361.2,5.3L357.5,6.4L356,4.9L356.8,3.3L360.1,0.5L361,1.4ZM342.6,0L341.2,1.7L340,0.9L340.6,0L342.6,0ZM342.4,39.1L345.9,37.6L344.7,39.5L343.1,39.8ZM333.8,22.5L333.1,24.5L331.5,23.1L333.3,21.2ZM398.3,103.9L396.6,106L393.8,102.6L394.9,99.9L398.6,100L399.7,100.7ZM397.5,55.8L399,57.5L396.9,58L396.2,56ZM400,160.1L397.4,162.3L396.2,161.3L394.3,162.6L389.9,160.5L390,157.3L394,158L398.5,158.2L398.5,158.2L400,159.9L400,160.1ZM292.3,392.1L290.8,395.8L294.5,395.5L294.1,391.9L299.7,392.9L302.7,392.3L304.9,394.2L304.8,398.1L305.7,399.5L289.6,402.3L285.8,402.7L287.3,399.1L287.1,397.2L290.3,395.7L292,392.1ZM400,472.4L399.9,472.4L400,472.3L400,472.4ZM368.6,482.8L373.4,483.8L376.2,480.9L380.2,481.2L380.6,485.9L377.1,488.1L375.8,485.8L375.7,493.8L377.1,499.8L372.8,500.2L371,498.9L367.5,499.6L364.5,498.8L358.4,502.5L353.9,507.6L345.4,508.5L343.9,509.2L336,510L333.7,511L334,508.5L331,507.1L328.9,505.3L330.2,503.1L328.3,502.4L325.6,504.9L319.3,502.8L319.1,499.1L313.4,497.1L312.8,494.2L308.1,491.2L313.7,488.5L317,477.8L317.7,473.5L319.2,470.7L322.8,467.3L324.3,465.4L326.5,465.9L332.2,465.5L334.9,464.4L337.8,466.1L341.2,463L345.9,460.7L346.3,458.2L348.3,457L351.1,457.3L355.3,462L362.6,467.2L364.9,470.4L366.1,477.6ZM81.3,538.2L86.2,537L85.6,539.5L92.1,541.3L94.5,540.1L98.7,541.2L98.8,544.2L101.3,546.1L94.6,550.9L94.4,558.3L92.5,559.5L93.1,561.7L91.4,564.9L87.1,564.8L89.2,571L90.6,572.1L87.6,575.5L86.6,578.2L88.6,583.2L87.1,583.4L83.6,587.6L83.7,592.2L79.6,593.4L73.1,591L69.5,591.3L71.9,587.2L73.4,576L70.5,575.5L71.8,572.4L68.9,572L71,565.5L73.3,563.7L77.1,557.9L76.8,557.2L80.4,548.3L80.2,539.3ZM318.5,428.3L319.4,430.4L323.6,434.6L323.9,439.4L322.2,440.2L318.9,446.4L317.2,450.8L319.6,456.1L317.6,456L313.7,455.3L310.5,453.8L303.5,455.5L297.9,458.8L297.6,457L294.9,455L293.2,457.5L290.8,456.7L288.2,453.1L284.2,452.1L283.3,453L279.6,450.5L275.6,449.2L276.7,451.1L274.8,453L271,449.9L272.2,448.1L269.3,448.1L264.6,446.6L261.8,444.7L260.7,446.6L261.6,442.1L259.3,439.5L258,436.2L258.6,433.4L256.9,430.6L257.1,428.7L253.4,425.3L254.8,420.7L253.1,415.9L255.4,416.7L254.9,414.7L252.7,414.4L252.6,413.6L264.6,408.2L266.5,405L270.6,402.4L277,400.1L280,404.1L282.1,404.6L285.8,402.7L289.6,402.3L305.7,399.5L309.9,400.2L311.3,402.8L316.3,411.8L317,415.7L314.6,418L313.9,421.1L317.4,422.7ZM258.4,241L256.4,241.6L257.9,244.5L256.9,247.2L258.2,247.7L257.3,249.3L250.2,248.2L249.3,248.8L250.1,252.5L249.4,255.4L246.6,254.3L244.7,257L244.3,260.2L242.6,262.9L244.5,266.9L241,274L241.6,276.1L239.8,277.9L237.5,278.6L238.4,281.8L238.4,288.1L235.4,296.7L237.7,297.8L238.4,301L237.7,302.9L234.4,302.6L231.4,304.4L229.4,308.6L228.8,312.1L230.2,315.2L230.1,319.8L231.4,323.2L231.3,329.6L235.5,333.3L234.8,336.8L232.8,337.5L235,343.4L234.8,347.3L232,350.3L230.8,353.4L231.8,356.7L231.3,360.8L229.7,359.7L226.5,358.3L224.6,354L222.9,360.5L220.1,360.7L213.8,368.9L211.8,370.7L207.8,372.2L202.4,371.2L201.4,369.7L197.5,366.9L196.3,364.7L196.8,361.5L199.7,363L198.4,360.9L198.8,358.3L200.6,355.6L195.4,359.8L194.1,359.1L195.1,354.5L197.7,354.3L200.1,352.4L197.4,352L199.7,347.9L201.7,345.9L201.8,348.8L203.3,344.9L199.7,346.6L196.1,352.5L194,354.2L194.5,349.6L195.7,348.8L194.4,347.1L194.7,344.2L193.6,342.7L193.4,339L198.7,338.1L204.4,338.2L207.1,337.2L202.3,337L195.1,338.2L193.5,336.6L193.4,334.6L195.2,334L193,331.5L193.3,329.3L195.8,329.4L198.8,330.6L199.4,329.8L194.2,328.7L194.1,326.4L198.1,323.5L199,324.3L200,321.6L202.4,321L207.3,321.4L206.5,320.5L209,319.2L202.5,320.2L203.6,317.3L206.5,315.6L209.2,315.6L212,318.3L209.4,314.8L211.5,313L210.5,310.6L212.6,309.2L215.1,309.9L216.9,309.2L218.5,311.7L222.4,310.7L222.1,308.8L225.1,306.6L224.6,303.8L222.8,305.4L223,307.1L220.2,309.6L218.1,310.3L216.4,307.3L220.6,299.9L225,295.9L223.9,295.9L224.6,293.3L227.6,290.7L228,285.5L229.8,281.6L229.5,279.9L233.5,278.5L234.7,276.8L230.9,278.2L230.8,273.5L234.2,267.6L239.9,265.3L235.4,265.3L237.3,261.9L239.7,263L238.5,259.5L236.3,260.8L237.1,257.4L239.4,256.7L238,256L240.8,253.7L242.4,257.5L242.6,255L241.4,253L242.1,251.6L244.2,251.7L247,250.4L242.8,250.6L242.8,248.7L245.6,246.2L246.3,242.5L247.8,241.6L247.9,237.8L249.4,238L251,233.9L253,233.1L253.5,237.3L254.2,231.7L255.5,231.6L255.8,235.5L256.7,235.3L256.3,230.9L258.5,230.7L259.3,229L261.8,230.9L261.1,228.7L258.4,226.5L260.1,226.2L263.2,223.7L264.4,224.3L266.5,227.6L266.3,224.5L268.1,221.1L268.9,218.3L268,217L269.3,214.4L271.7,215.8L273.6,215.1L272.6,219.1L272.6,223.2L273.1,224.4L276.1,213.7L277.2,214.1L277.1,216.4L278.1,219.3L279.3,217.7L279.2,214.8L280.4,213.5L278.7,212.5L279.6,210.4L282.9,210.8L283.3,214.1L284.6,218.9L284.5,213L286,211.2L289.4,212.8L290.2,211.8L291.3,213.4L292.8,213.1L295.2,215.5L292,218.8L287.4,219.7L291.2,220.6L292.1,222.7L294.2,222.4L293.9,221.3L296.8,221L297.8,223.8L294.9,223.6L294.9,226.6L292.9,228.4L292.3,232.1L291.2,230.5L292.1,226.5L290.6,224.6L287.2,223.8L284.3,221.7L281.8,224.5L279.5,225L278.4,228.6L278.7,233.6L279.5,236.4L278.3,238.2L277.4,241.7L272.3,240.5L270.6,242.8L266.6,242.9L265.8,241.5L261.9,237.4L259.8,238.9L260.2,240.5ZM193.1,338.5L193.1,338.5L193.1,338.5ZM193.8,347.1L193.8,347.1L193.8,347.1ZM293.3,222.1L293.3,222.1L293.3,222.1ZM226.2,285.7L226.2,285.7L226.2,285.7ZM210.8,309.1L210.8,309.1L210.8,309.1ZM209.1,312.9L209.1,312.9L209.1,312.9ZM264.9,217.9L264.1,220.8L261.6,222.4L259.8,221.1L263.3,219.6ZM271.9,212L274.5,213.1L272.5,214.1L271.3,213.5ZM266.3,220.8L266.4,222.5L265.3,224.3L264,222.7L265.8,220.1ZM267.8,220.2L266.4,220.2L266.4,218.4ZM231.6,254.5L231.4,256.4L229.1,257.9L230.1,254.8ZM228.2,259.4L228.2,259.4L228.2,259.4ZM236.2,245.9L237.2,247.7L236.8,249.7L233.8,249.9L233.7,247.7L234.7,247.9L235.4,245.4ZM252.2,228L252.2,228L252.2,228ZM256.5,228.7L254.9,228.3L256.4,227.3ZM250.5,230.2L252.1,231L250.6,233.2L249.7,236.2L247.7,237.1L247.6,234.3L248.7,232.7L250,228.1ZM228.4,282.3L228.4,282.3L228.4,282.3ZM227.8,280.7L227.8,280.7L227.8,280.7ZM223.4,294.6L221.6,295L222.9,293.4ZM244.5,236.9L246.7,237.6L247.1,241.2L245.2,241.6L244.2,243.8L243.2,242.6L242.9,240ZM239.1,250L241,246L242.2,248.7L240.1,251.9L237.6,252.4L234.9,254.9L233.3,255.2L234.4,252.6L236.5,251.8L237.6,249.6L237.8,246.5L237.2,244.6L238.5,241.6L239.5,242.2L238.6,244.6L239.6,247.9ZM139.1,221.4L139.2,220.5L142.1,218.3L143.4,218.1L143.2,219.7ZM240.6,178.8L239,177.9L240.2,177.3ZM249.8,120.4L248.5,119.8L248.5,118.6ZM256.7,97.1L254.5,98.1L258,94.8L258.6,95.2ZM236.6,124.6L237.8,124.6L239.5,128.9L241.2,128.2L242.8,129.2L242.4,131.4L244.3,132.5L245.7,131.9L247.9,133.2L246.2,135L245.9,137.2L243.7,140.7L242.6,140.5L242.7,137.4L238.4,139.7L237.6,138.3L238.3,137.4L238.7,133.2L237.3,132.4L234.6,128.7L233.7,126.3ZM230.1,103.1L231.6,102.9L233.9,105.1L233.2,100.3L234.2,99L235,99.5L235.4,102.8L236.6,102.2L237.5,99.8L238.4,100.6L241.6,101.4L243.9,100.9L245.7,104L244.1,108.6L244,111.6L242,112.7L240.6,115.4L238,115.6L237.3,113.2L235.1,114.2L232.5,114.5L229.1,112.5L230.9,111.6L231.3,109.9L227,110.9L224.9,108.6L226,106.9L223.6,105.9L225.4,104.9L226.9,105.6L226.4,102.9L227.6,104L226.6,100.9L228.5,101.4ZM221.4,109.5L221.8,108.8L223.4,109.5L224.7,111.8L224.7,116.1L225.7,113L227.3,114.7L227.5,117.4L228.8,118.6L231.5,118.2L233.2,119L232.7,120.2L235.7,122.8L235.1,123.8L231.8,125.2L230.7,129.5L231.2,132.7L229.8,133.7L230.4,140.2L229.4,140.7L228.4,146.8L228.4,149.9L228.9,151.8L228,153L224.1,149.6L222.5,147.2L220.1,145.6L218.8,143L218.8,141.4L220.6,141.7L220.9,139.5L224.3,137.8L226.5,137.2L225.8,135.9L223.8,137L222.4,136.9L219.9,138.6L217.5,137.8L217,135.5L222.1,132.2L221.8,131.3L224.7,130.2L223.5,128.3L224,126.1L222.2,128.6L220.9,129.1L220.1,125.1L219.2,127.1L218,126.8L218.9,130.1L217.8,132.2L215.2,132.9L212.4,128.5L211,127L211.1,125.4L210.1,123.5L212,124.4L210.8,121.1L211.1,119.5L209.8,119.4L209.1,121.6L207.5,116.4L207.5,112.7L209.5,112.2L211,113.5L210.9,112.1L212.1,112.6L214.2,111.2L214.6,113.1L212.9,113.7L211.9,115.4L213.8,115.1L214,116.4L215.7,118.1L215.5,114.8L216.4,111.7L217.8,113.3L220.1,118.9L222.2,122.1L219.6,112.9L219.6,108.4L220.6,108.1ZM209.7,128.5L211.5,130.7L212.5,133.3L209.6,130.5L208,126.7L207.6,124.7L208.7,125.4ZM225.1,103.4L225.1,103.4L225.1,103.4ZM254.1,115.4L251.5,117.1L252.4,115.3ZM184.3,820L184.4,811.4L203.1,807.3L221.6,789.8L269.7,754.8L286.6,757.1L295.6,762.8L303.3,757.3L307.1,769.8L307.9,774.6L313.6,780.8L313.7,783.5L318.6,788.1L316.9,793.3L318.4,820L184.3,820ZM200.2,452.1L197.8,451.1L199,448L191.7,444.1L188.1,445.2L185.3,444.9L182.8,443.4L187.8,442.7L186.3,440.5L189.9,435.1L191.2,429.7L195.7,426.5L196.8,424.6L200.3,423.1L205.2,422.6L207.7,424.3L207.8,427.4L206.7,431.4L205,431.5L205,433.3L206.9,434.2L204.9,437.5L205.1,439.4L199.8,441.1L201.5,444L201.1,447.8L199.5,449.6ZM188.1,445.2L185.8,447.1L182.1,445.2ZM202,421.9L202,421.9L202,421.9ZM199.4,422.5L199.4,422.5L199.4,422.5ZM194.1,424.2L194.1,424.2L194.1,424.2ZM195.5,423.4L195.5,423.4L195.5,423.4ZM192.6,426.8L192.6,426.8L192.6,426.8ZM186.2,441.3L186.2,441.3L186.2,441.3ZM204.6,421.1L204.6,421.1L204.6,421.1ZM0,696.8L1,696.5L7.6,687.1L10.7,684.7L20.8,684.5L27,682.9L31.3,679.9L38.1,677.2L46,670L48.5,667L49.4,663.2L47.8,659.7L50.1,652L55.9,645.4L57.9,640.2L65.3,634.4L68.4,632.9L75.7,631.1L82.5,628.4L88.9,620.2L94.5,609.6L100.4,609.1L99.7,610.8L103.5,616.6L107.9,618.5L113.9,617.9L118.3,618.8L120.6,617.2L121.5,620.4L127.1,621.2L127.1,621.2L130.7,625.5L130.9,628.8L130.3,641.8L131.5,646.9L135.3,651.8L132.9,656L121.7,654.5L117,655L115.9,657.3L107.9,658.4L107.2,663.6L109.1,665.3L101.8,668.7L95.1,670.5L89.6,675.7L86.2,676.2L79,675.8L77.2,678.4L72.8,677L66.4,679.2L55.4,684.6L53,696.7L51.6,696.5L50.7,702.7L44.3,701.8L40.5,703.8L35.2,702.8L28.7,699.6L23.6,700L23.6,703L18.3,708.2L14.9,708.3L7.5,721.1L0,724.4L0,696.8ZM0,724.4L7.5,721.1L14.9,708.3L18.3,708.2L23.6,703L23.6,700L28.7,699.6L35.2,702.8L40.5,703.8L44.3,701.8L50.7,702.7L51.6,696.5L53,696.7L53,696.7L52.2,701L49.5,715.9L15,708.7L8.2,737.9L1.3,738.7L0,739.2L0,724.4ZM305.5,520.4L309,523.4L315.9,525.5L316.1,526.2L313.8,527.8L314.5,529.7L312.4,530.9L311.1,529.5L309,535L310.1,538.2L305.8,534.7L302.4,533.3L301.5,532L300.8,527.6L302.1,526.7L303.6,521.2ZM348.3,457L349.5,455.2L352.2,454.6L354.1,452.8L361.7,454.8L363.7,453.8L366.4,454.6L368.1,456.8L368.7,459.8L372.1,461.1L373.3,463.9L375.9,464.6L377.3,467.5L379.1,468.2L377.3,469.6L371.8,469.5L370.6,471L372,474.9L368.6,482.8L366.1,477.6L364.9,470.4L362.6,467.2L355.3,462L351.1,457.3ZM212.7,528.3L212.2,528.5L212.7,528.3ZM0,739.2L1.3,738.7L8.2,737.9L15,708.7L49.5,715.9L52.2,701L81.6,727.9L88.3,733.9L69.5,731.2L65.8,820L0,820ZM280,610.5L280,610.5L280,610.5ZM277.4,608.9L277.4,608.9L277.4,608.9ZM65.8,820L69.5,731.2L88.3,733.9L91.2,736.5L149.7,786.3L149.7,789.8L154.6,793.2L155.4,795.4L161.4,797.3L163.5,799.6L172.6,803.2L173.1,807.9L171.3,811.1L174.7,813.2L184.4,811.4L184.3,820L65.8,820ZM327.1,530.4L333.1,528.3L337.8,530.8L339.9,533.4L340.1,537.6L337.3,540.8L332.8,542L330.5,545.2L325.5,546.5L323.6,546.3L320.7,542.7L320,536.1L323.2,532.1L325.2,532.5ZM201.2,459L201.4,460.6L203.9,462.4L202.9,466.2L199,465.4L198.6,461.2L200.2,458.5ZM292.3,392.1L292,392.1L292.3,392.1ZM305.7,399.5L304.8,398.1L304.9,394.2L302.7,392.3L299.7,392.9L294.1,391.9L291,383.5L294.1,380.1L296.4,378.5L301.1,377.5L308.9,377.1L313.1,374.5L314.6,376.3L317.9,376.2L323.1,379L325.3,379.4L325.5,383L327.4,383L327,385L325.1,385.5L323.1,388.5L323,395.3L319.2,400.4L311.3,402.8L309.9,400.2ZM227.4,491.4L226.9,489.1L227.4,491.4ZM400,776.1L313.5,750.4L303.3,757.3L295.6,762.8L286.6,757.1L269.7,754.8L263.8,745.8L254.7,743.7L250,743.6L247.2,738.3L246.7,735L240.3,726.7L240.6,723.6L244.3,720.8L244.4,717.3L242.5,711.7L243.9,706.3L242.3,697.4L242.3,692.7L239.8,685.1L236.2,679.8L238.2,678.4L238.2,678.4L241.8,676.4L244.6,671.6L244.7,668.8L243.1,663.9L249.5,656.4L255.7,652.1L254.9,643.4L262.6,646.4L267.1,646.6L272,644.8L281.4,646.4L284.2,648L290.7,648.5L292.8,650.8L294.9,656.3L297.3,658.7L301.6,659.9L308,659.5L313.8,660.1L322.5,662.2L330.7,666.3L334.2,665.7L337.8,662.6L340.7,655.2L336.9,647.3L337.9,642.5L339.7,639.6L345.4,634.4L348.7,633.4L350.3,631.5L355.5,630.5L364.6,631.8L365.6,635L367.6,635.8L372.5,635.3L376,636.1L381.2,634.7L384.8,635.3L386.6,637.5L384.8,641.7L387.6,647.6L386.7,654.7L392.4,665.3L400,693.2L400,776.1ZM325.3,379.4L323.1,379L317.9,376.2L314.6,376.3L313.1,374.5L308.9,377.1L301.1,377.5L296.4,378.5L294.1,380.1L291,383.5L289.4,375.4L290.6,372.9L290.5,369.5L291.5,366.5L295.9,363.8L300.2,367.3L301.7,369.5L304.1,370.3L307.3,367.2L307.5,365.4L305.6,359.7L309.5,356.4L315.1,357.4L319.1,359.8L321.3,358.2L323.8,358.4L327.4,360.6L327.6,365.1L328.5,364.6L331.3,367.4L332.9,371.6L331.6,372.7L330.7,376.2L327.5,376.8ZM316.1,526.2L318.4,520.9L321.1,522.2L324.5,525.3L327.5,525.5L327.1,530.4L325.2,532.5L323.2,532.1L320,536.1L318.5,532.5L314.5,529.7L313.8,527.8ZM208.7,504.6L214.6,504.5L218.7,498.6L219.5,500.7L223.5,505.1L225.4,500L225.4,497.9L227.5,499.6L230.6,498.8L232.3,495.9L234.1,496.5L234,493.1L238.4,493.5L239,491.9L246.6,489.7L248.6,493.6L258.6,494.6L256.5,497.6L258.5,498.3L258.5,502.1L260,504.7L259,502.8L255.8,503.1L254.6,504.7L249.1,507.4L248.9,509.6L251.5,512.4L249.7,515.3L251.3,520.6L253.9,522.9L260.8,526.3L262.5,528.6L265.9,535.9L267.6,537.8L273.7,542L276.3,543L282.8,542L284.6,543.8L282.9,545.5L283.9,547.4L293.5,550.1L301.3,553.4L304.9,555.9L306.7,558.6L306.1,561.9L303.6,561L301.2,557.6L297.9,557.8L295.1,556.1L293.1,556.9L290.8,564L291.8,566.3L296.6,568.5L297.8,572.5L294.4,574.3L293,576.5L293.4,579.8L291.4,581.9L290,585.6L287.1,586.1L286,583.6L287.4,581.9L288,577.3L289.8,576.5L287.4,570.2L283.6,563.6L277,561.7L274.9,557.2L271.4,558.4L272.2,556.9L269.1,556.2L265.5,552.1L260.2,552.6L256.2,550.5L247.3,542.3L244.4,541.1L239.2,535.8L235.6,529.7L234.8,526.1L233.1,524.3L227,521.4L222.8,520.5L221.2,521.4L217.7,526.3L213.1,528.1L214.4,524.6L208.2,522L207.7,520.1L209.1,517.8L205.9,513.5L209.4,512.1L209.9,510.3L207.2,507ZM254.2,546L254.2,546L254.2,546ZM252.4,524.1L252.4,524.1L252.4,524.1ZM236.8,536.9L236.8,536.9L236.8,536.9ZM267.9,557.7L267.9,557.7L267.9,557.7ZM256.3,603L256.3,603L256.3,603ZM285.4,583.2L283.1,588.4L282.4,592.1L284.8,596.8L283.6,600.6L278.1,600.1L274.5,597.1L272.4,597.4L263.1,593.2L261.2,593.4L258.6,590.9L260.8,586.6L262.4,588.1L264.5,586.1L269.2,587.7L276.4,586.3L279.1,584.5ZM232,559L233.5,562.5L232.9,575.8L231.9,578.3L228.1,577.4L226.8,581.1L224.8,581L222.7,578L222.4,575L223.5,571L222.2,570.2L222.6,566L220,562.1L220.2,559.2L223.2,559.8L228.4,555L231.8,557.6ZM223.3,579.5L223.3,579.5L223.3,579.5ZM220.7,557.8L220.7,557.8L220.7,557.8ZM97.6,408.1L97.6,408.1L97.6,408.1ZM117,398.5L112.9,403.1L110.2,404.9L111.5,407.3L114.4,408.9L116.9,406.1L118.8,410.2L121.6,410.3L120.6,411.3L121.2,415.9L121,423.1L119.1,427.1L117.1,429L117.9,430.1L109.7,430.5L108.6,431.6L100.2,434.5L93.1,434.3L95.3,432.4L91.5,432.6L94.4,430.7L92.1,430.9L90.4,429.4L93.8,427.1L90.9,426.6L92.9,425.3L95.2,426.1L94.7,424.3L96.7,423.1L102.6,422.8L94.9,422.5L98,420.8L100,417.6L102.7,416.9L99.2,416L95.8,411.8L98.4,411.7L97.5,410.1L99.9,408.9L97.7,408.7L98.6,406.3L97.7,404.3L102.4,404.7L107.2,406.2L106.9,405L110.5,402.4L106.6,401.3L109.5,399.4L110.6,396.8L115.3,397.1L117.3,395.6L118.9,397.2ZM99.5,267.4L103,266.6L101.1,269.1L102.7,270.8L101.3,273.2L103.4,273.7L103.4,274.9L106.1,277.6L104.8,279.2L104.9,283L101.4,285.9L100.4,285.2L99.2,287.9L96,289.4L93.7,289.1L90.5,290L87,291.9L80.9,291.8L78.9,293.7L75.8,293.8L69,289.7L65.5,283.9L64.2,284.4L58.5,282.6L59.3,279.9L59.8,281.2L62.2,281.1L65.4,278.4L63.7,278.7L64.5,276.6L63.2,274.8L63.2,272.7L59.4,270.9L56.7,270.7L56.5,269.2L62.5,269.7L66.8,271L65,268.1L68.7,266.8L64.5,263.6L59.4,263.7L57.4,261.7L59.8,261.3L60,259.6L61.8,261.3L63.5,261.1L61.6,259.1L63,259.4L62.9,257L65,256.4L65.7,259.1L68.5,259.2L66.9,256.8L69,257L66.7,255.2L68.1,254.4L70.1,255.3L72.9,261.3L70.6,267.3L71.1,269.9L74.4,266.3L75.3,267.7L77.5,262.9L79,263.2L79.9,266.8L81.9,263.9L85,263.8L86.8,268.4L87,264.6L88.7,265.2L89.7,267.7L92.3,265.6L93.4,266.9L95.2,266.6L95.8,263.8L98.4,263.7ZM316.4,463.7L321.6,465.8L322.8,467.3L319.2,470.7L317.7,473.5L317,477.8L313.7,488.5L308.1,491.2L302.7,491.7L298.5,495L295.3,497.5L290.5,498L287.2,496.8L281.5,492.6L279.6,492L277.3,488.4L275.9,488.5L278.3,486.6L277.6,482.3L278.8,481.6L277.8,478.4L281.6,478.3L281.7,475L286.5,476.8L293.5,475.4L293.5,473L298.1,470.9L299,469.5L301.2,470.1L303.9,467.7L304.5,465L311.2,463.2L314,465ZM395.4,577.3L395.4,577.3L395.4,577.3ZM328.3,573.8L330.2,576.9L328.1,577L326.8,574.4ZM332,579.6L332,579.6L332,579.6ZM328.4,571.2L328.4,571.2L328.4,571.2ZM329.6,574.1L329.6,574.1L329.6,574.1ZM321.4,563.3L317.2,560.9L318.6,559.5ZM350.5,562.1L351.3,563.2L357,563.8L359.8,568.2L362.4,568.4L362.4,570.4L359.5,569.5L357.3,566.9L354.9,567.4L349.5,564.2L346.2,564.2L349.4,561.5ZM353.1,559.7L353.1,559.7L353.1,559.7ZM353.9,559L353.9,559L353.9,559ZM361.5,561L361.5,561L361.5,561ZM357.1,541.5L357.1,541.5L357.1,541.5ZM354.4,573L354.4,573L354.4,573ZM354.8,592.8L354.8,592.8L354.8,592.8ZM393,590.8L393,590.8L393,590.8ZM386.9,575.2L386.9,575.2L386.9,575.2ZM387,577.9L387,577.9L387,577.9ZM374.2,578.8L374.2,578.8L374.2,578.8ZM371.6,578.3L371.6,578.3L371.6,578.3ZM375.4,585.1L375.4,585.1L375.4,585.1ZM373.7,582.3L373.7,582.3L373.7,582.3ZM382.5,566.6L384.7,567.1L380.7,568.2ZM376.6,571.6L376.6,571.6L376.6,571.6ZM377.5,579.9L377.5,579.9L377.5,579.9ZM383.3,580.6L383.3,580.6L383.3,580.6ZM362.3,575L362.3,575L362.3,575ZM363.6,577.3L363.6,577.3L363.6,577.3ZM366.1,583.3L366.1,583.3L366.1,583.3ZM367.5,574.5L367.5,574.5L367.5,574.5ZM367.1,571.6L367.1,571.6L367.1,571.6ZM369.9,572.7L369.9,572.7L369.9,572.7ZM367.2,581.2L367.2,581.2L367.2,581.2ZM375.1,564.1L371.9,560.9L374.6,560.5ZM374.3,551.5L376.6,554.2L373.1,555.3L370,554.2L372.1,551.6ZM365,541.5L365,541.5L365,541.5ZM364.3,546.8L364.2,548.8L361.2,547.5ZM371.6,574.3L371.6,574.3L371.6,574.3ZM365,579.5L365,579.5L365,579.5ZM397.3,584L395.4,581.8L399,577.6L399,581.9ZM363.6,598.2L368.1,599L371.6,597.4L378.6,596.9L380.7,595.8L381.5,598L385,596.1L386.2,597.7L373.7,602.5L372.4,601.1L364.7,601.3L362.5,601.9L361.2,600.2L362.2,597.2ZM366.2,526.4L368.6,527L369.6,529L367.7,531.4L368.6,534.4L366.9,537.5L365.1,536.7L358.7,536.8L356.5,538.9L353.8,538.6L351.2,541.8L348.5,542.2L350.3,545.6L349.2,548.1L346.3,548.8L342.4,547.7L342.1,545.6L340,547.2L340.9,552.2L348.6,558.9L344.9,560.1L346.6,562.3L343.8,564.6L349.9,565.7L354.4,568.1L357,568.3L359.3,574.2L354.5,572L350.2,574.6L352.2,577L355.2,578.3L352.7,580.2L348.4,578.9L352.1,584L353.3,589.3L350.8,586.9L348,590.7L347.5,588.7L344.1,585.7L343.2,589.3L339.7,586.1L340.1,583.5L338.5,581.2L334,578.6L335.5,574.4L338.7,572.1L349,574L350.4,571.1L343.5,569.8L335.7,572.9L332.5,572.9L328.4,567.6L331,567.5L331.1,565.9L328.3,566.7L323.5,564.1L320.1,560.5L323.1,558.8L322.1,557L324.7,554.9L325.2,551.1L326.6,548.8L325.5,546.5L330.5,545.2L332.8,542L337.3,540.8L340.1,537.6L345.8,535.7L348.8,533.3L352.4,532.1L359.1,533.8L365.7,530.3L364.3,527.4ZM226.7,486.4L224.1,484.9L219.9,484.1L218.5,486.1L212.6,486.3L212.2,481.2L213.8,474.8L215.8,471.1L210.8,469.3L205.7,469.4L202.9,466.2L203.9,462.4L201.4,460.6L201.2,459L202.9,456.8L201.9,453.8L200.2,452.1L199.5,449.6L201.1,447.8L201.5,444L199.8,441.1L205.1,439.4L204.9,437.5L206.9,434.2L205,433.3L205,431.5L206.7,431.4L207.8,427.4L207.7,424.3L206.8,423.3L208.2,419.9L212.9,419.7L214.5,422.3L216.1,421.4L216.7,417.5L219,416.8L218.4,413.1L216.6,411.7L218.5,410.1L216.5,406.2L220.8,407L223.3,406.7L225.2,408.2L224.3,410.5L226.1,410.2L229.9,411.8L231.7,411L231.4,415.2L234.5,415.5L236.9,413.1L238.9,412.7L241.5,409.1L244.5,409.4L247.4,412.1L249.2,411.7L250.5,414.9L253.1,415.9L254.8,420.7L253.4,425.3L257.1,428.7L256.9,430.6L258.6,433.4L258,436.2L259.3,439.5L261.6,442.1L260.7,446.6L258.5,445.2L257.7,446.5L252.2,449.5L251.9,450.3L245.2,454L243.7,456.9L246.1,458.9L245.4,460.6L247.4,463.5L256.6,470.1L255.9,472.9L250.1,477.5L252.5,482.8L252.4,484.7L249.8,482.9L246.2,482.7L246.1,483.8L242.8,484.5L237.5,487L236.6,485.7L233.4,485.7L232.7,488.3L228.3,485.7ZM248.8,409.3L246.8,411L245.2,407.9L246.6,406ZM252.6,413.6L252.7,414.4L250.8,414.6L249.9,411.9ZM233.4,410.4L233.4,410.4L233.4,410.4ZM214.3,407.6L214.3,407.6L214.3,407.6ZM216.1,408.3L216.1,408.3L216.1,408.3ZM229.4,537.9L230.5,545L227.9,553.7L224.7,551.6L225.3,550.3L223,547.9L222.3,543.2L223.4,541.1L227.9,539.2L228.4,535.7ZM212.6,486.3L211.2,487.8L208.5,487.5L208.2,489.4L201.4,499.3L201.6,502.3L204.1,499.2L206.6,499.3L206.8,502.1L208.7,504.6L207.2,507L209.9,510.3L209.4,512.1L205.9,513.5L209.1,517.8L207.7,520.1L208.2,522L214.4,524.6L213.1,528.1L212.7,528.3L212.2,528.5L207,532.6L205.3,534.9L202.3,536L196.6,534.3L193.8,532L190.4,532.6L185.8,530.3L179.4,534.6L177.7,537.6L178.9,542.9L174.3,543.8L169.3,543.5L166.7,541.7L164.5,540.6L163.9,539.5L158.7,537.6L158.1,539.3L152.7,538.9L150.7,537.3L148.4,537.4L147.1,535.8L141.5,533.9L142.2,532.1L139.3,530L141.9,528.5L144.7,517.7L145.7,511.2L146.8,507.2L149.1,509.8L147.4,505L147,498.7L142.4,496.1L140.7,492.7L141.2,490.2L140,488.8L141.8,487.3L137.9,486.9L138.6,485.2L136.2,484.5L133.5,482.3L128.3,480.1L125.3,479.9L122.9,477.2L125.6,476.1L123.1,473.7L123.3,471.8L128.3,470.5L134.4,469.8L137.9,473.5L139.8,472.4L147.5,473.1L146.3,471.3L146.5,467L145,461.6L149.2,462L149.8,465.3L156.7,466.8L160.9,465.4L158.9,464.6L159.4,462.5L167,459.7L169.6,457.1L169.7,451.8L172.2,449.1L176.4,448.1L178.4,452.4L180.3,451.7L181.4,454.4L184.1,456.7L187.6,457.6L187.3,460.5L191,460.3L192.4,458.9L192.4,462.7L197,465.7L199,465.4L202.9,466.2L205.7,469.4L210.8,469.3L215.8,471.1L213.8,474.8L212.2,481.2ZM146.4,503.1L146.4,503.1L146.4,503.1ZM275.4,338.5L277,339.2L276.2,341.2L273.9,340.1ZM273.9,340.6L273.9,340.6L273.9,340.6ZM279.4,341.2L279.4,341.2L279.4,341.2ZM282.3,273.8L279.3,270L278.3,266.8L278.6,262.8L276,259L275.8,256.2L274.5,256.2L273.5,251.4L273.9,250.4L269,246.3L265.4,245.6L258.4,241L260.2,240.5L259.8,238.9L261.9,237.4L265.8,241.5L266.6,242.9L270.6,242.8L272.3,240.5L277.4,241.7L278.3,238.2L279.5,236.4L278.7,233.6L278.4,228.6L279.5,225L281.8,224.5L284.3,221.7L287.2,223.8L290.6,224.6L292.1,226.5L291.2,230.5L292.3,232.1L290.5,234.1L292.3,235.1L292.2,238.7L294.2,241.7L297.3,242.2L301.4,245.4L301.7,247L300.2,254.5L300.7,255.9L307,262.9L309.4,267.1L308.6,268.7L309,272.7L310.2,273.7L309.8,275.5L312.7,277L314.3,281.2L316.8,282.4L317.5,284.3L316.1,288L319,289.9L323.8,291.8L326.7,294.6L326.7,298.4L321.3,315.4L318.3,321L316.4,325.8L313.5,326.7L305.7,331.3L303.5,333.6L296.5,338.1L295,338.2L292.7,340.6L293.5,338.2L291.2,336.5L289.5,339L289.2,335.1L287.4,335.3L282.6,334.2L281.3,330.2L281,323.1L278.3,319.2L278.2,316.5L276,312.4L276,310.4L277.7,307.2L276.8,305.5L280.3,303.5L280.5,299.5L283.3,295.9L286.5,287.9L287,284.4L290.3,282.8L288.6,275.9L284.3,273.8ZM286.2,336.3L286.2,336.3L286.2,336.3ZM275.1,305.4L275.1,305.4L275.1,305.4ZM287.1,335.7L287.1,335.7L287.1,335.7ZM282.8,334.9L282.8,334.9L282.8,334.9ZM285.8,338.6L285.8,338.6L285.8,338.6ZM284.8,339.2L284.8,339.2L284.8,339.2ZM287.8,281.9L287.8,281.9L287.8,281.9ZM323.8,358.4L321.3,358.2L319.1,359.8L315.1,357.4L309.5,356.4L305.6,359.7L305.4,354.2L303.3,355.8L301.1,355.2L297.7,349.7L297.3,346.7L300.3,344.8L301.4,342.4L307,340.4L307,339L313.3,338.2L315.5,338.7L320.6,337.6L321,336.6L320.1,344.4L322.1,350.4L325,354.4L324,355.3ZM293.9,354L298.1,354.6L295.6,358.1L292.7,359.6L290.7,358.9L290,356.4ZM295.1,351.4L293.3,353.4L292.2,351.7L290,351.3L292.6,349.1L294.6,349.7ZM298.2,353.8L298.2,353.8L298.2,353.8ZM400,693.2L392.4,665.3L386.7,654.7L387.6,647.6L384.8,641.7L386.6,637.5L389.2,638.4L393.7,635.9L400,635.4L400,693.2ZM0,122L0.7,121.4L1.1,119.3L0,119.5L0,119L0,119L0.5,116.9L2.7,116.7L4.1,114.6L2.7,114.5L3.4,112.1L6.8,109.7L8.3,106.1L5.8,104.5L7.9,105L10.2,103.1L11.7,103.5L11.9,100.6L12.7,98.9L12.9,95.4L14.5,90.6L16.4,90.4L17.5,88.3L17.1,86.3L17.1,81.9L16.5,77.5L14.5,73.5L14.2,71.4L11.9,71.1L12.3,69.5L9.8,69.1L8.3,68.1L8.7,66.3L6.5,65.3L5.7,64L4.6,66.2L2.9,61.9L3.6,56.9L4.7,56.1L9.2,57.3L7.6,54.7L8.1,52.1L10.1,51.5L7,50.9L8.3,47.7L10.3,47.3L12.8,49.9L13.5,51.7L15.7,51.6L16.8,52.4L18.6,55.3L18.6,57.2L21.8,55.2L22.4,53.4L19.6,52.6L18.6,51.7L18.5,49.6L15.8,48.9L15.8,46.8L16.7,44.3L18.7,44.6L16.9,42.7L17,39.2L18.4,36L20.8,34.8L22.9,34.6L25.3,35.4L26.5,37L29.3,38L31.6,39.5L32.5,38.8L36.9,41L39.1,43.8L42.1,43.2L45.3,41.8L50.3,39.1L52.2,39.4L52.1,38.4L49.1,37L48.4,33.8L50,32.3L53.6,31.4L56.6,31.9L61.7,31.2L63.1,31.8L62.4,34.7L64.3,32.7L66,32.1L67.3,35.3L70.6,33.5L73.7,30.6L76,29.7L78.1,30.5L78.3,31.9L77.4,35L77.1,37.9L76.4,40.4L77.2,39.6L77.9,36.2L79.7,30.7L81.3,30.7L85.6,32.5L87.2,33.8L89.4,33.9L89.7,35.7L88.1,38.4L84.2,42.4L86.9,41.2L91.5,36.5L91.8,36.9L90.3,43.9L92.6,45.5L93.9,40.5L95.7,37.7L97.2,38.8L98.2,41.1L98.3,45.5L98.7,47.3L98.4,52L98.9,53.2L99.8,52.7L101.9,49.7L104.8,47.1L105.8,44.7L106,41.5L107.3,41.3L110.5,44.5L111.1,46.1L112.6,45.4L108.6,40.5L106.4,39.2L106.8,37.8L108.3,36.8L108.9,38.2L111,37.7L114.2,37.8L115.3,39.1L115.6,41.6L118.9,39.8L119.7,43.1L119.3,45.9L121.2,43.9L121,42.5L121.6,40.8L123.9,40.2L125.5,41.4L126,40.7L129.1,41.9L130,43.2L131.8,43L135.2,44.9L136.1,45.8L136.1,45.8L137.5,48.7L139.4,50.5L140.6,52.5L139.8,53.3L133.2,51.2L129.7,50.6L128.9,51.9L132.3,51.8L134.3,52.7L135.7,54L137.6,54.8L141.2,54.8L140.7,59.2L141.7,60.5L143.5,61.7L144.4,63.7L144.3,65L141.5,67.3L138.5,67.6L127.5,64.7L125.8,67.2L129.9,67.7L134.6,70.5L134.9,72.5L134.5,75.1L136,75.1L138.4,71.9L142,72.4L141.7,74.3L139.9,78.7L137.7,81.7L132.9,86.3L133.3,86.6L135.8,85.5L139.5,82.9L142.1,80.1L144,79.6L143.6,81.3L144.9,82L146.5,84L150,80.1L152,79.1L155.5,80.7L157.7,82.8L159.1,86.1L153.5,91.2L151,91.5L151.2,93L150.2,94.3L147.6,95.2L145.9,94.7L144.6,95.5L145.9,97.9L142.9,100.4L140.1,99.9L137.5,97.8L134.8,100.4L133.9,103.1L135.4,104.4L135.3,105.3L133.6,109.5L133.5,112.3L131.6,112.9L129.8,115.5L128.3,115.4L126.4,116.8L126.4,118.3L120.9,127L120.7,128.9L123.7,126.3L126.5,130L125.8,131.8L124.6,129.7L122.9,130.1L123,133.6L124.9,136.3L127.1,136.2L127.5,137.2L126.4,140.8L125.3,142.4L121.6,139.2L119,138.8L116.3,140.5L114.8,138.5L113.5,139.6L115.1,141.6L115,145.8L116.7,145.9L118.6,147.7L118.1,150.5L118.4,153.8L117.3,158.4L116,160.7L115.1,160.7L113.7,158.1L111.7,159.5L108.3,160.8L111.1,160.4L111,162.8L109.2,165.3L110.8,164.9L112.5,162.2L113.8,162.7L113.8,167.3L114.2,169.3L112.9,171.5L110.1,170.5L109.9,171.5L106.6,171.6L104.6,169L106.2,166.5L103.6,168.1L102.7,170.4L103.3,172.2L105.5,173.1L108,175.5L106.1,179.4L102.4,178.9L99.6,180L97.3,178.1L95.7,174.9L95.5,171.8L93,173L91.6,169.8L92.2,173.9L86.9,175L83.9,171.3L85.3,174L84,175.5L89.2,175.7L90,174.9L92.5,175.2L94.6,176.3L96.6,181.3L98.6,184.2L96.3,190.1L95.3,190.4L94.3,192.9L89.9,186.3L89.8,183.8L90.5,179.5L82.3,180.2L83,181L88.7,180.6L89.3,181.2L87.6,186.2L91.7,193.9L92.7,195L92.6,196.8L93.9,197.6L90.9,199.6L90.2,202.6L91.4,200.7L93.5,200.9L91.2,208L90.4,211.9L87,211.4L88.5,206.9L85.7,211.2L83.4,210.2L81.9,207L82.6,202.2L82.4,199.8L79.4,194L75.7,191.6L74.9,192.5L78.4,194.5L79.2,195.6L78,198.5L73.4,199.5L68.1,196.3L68.6,198L66.9,200.4L62.7,200.9L64.6,201.6L66.1,203.3L71,204.6L71.5,205.9L66.3,207.1L66.3,208.8L68.7,207.1L71,207.9L74.9,207.9L77.5,209.7L80.8,213.1L85.9,215.2L84.8,216.6L81.9,216.8L81.8,217.7L78.5,217.2L78.4,218.7L76.2,218.2L75.8,219.5L68.7,222.1L67.4,223.5L63.4,224.4L55,223.5L50.8,223.4L48.5,222.1L46.6,222.6L44.9,221.1L44.6,222.7L42.9,222.5L41.5,221L39.8,215.9L38.4,218.2L37.9,220.9L32.1,222.5L23.3,229.5L19.5,231.2L16.2,231.7L14.6,228.2L13.8,231.7L9,233L9.5,230.9L7.9,232.5L6.5,230.9L3.8,232.1L2.1,231.9L1.8,230.1L4.3,228.1L8.4,225.9L5.4,223.2L6.2,225.4L1.8,228.3L1,229.6L0,229.5L0,122ZM10.8,44.3L10.2,41.9L11.7,42.4L11.9,44.4ZM101.3,49.6L100.8,44.3L101.7,41.6L102.9,40.2L104.5,40.8L104.9,43.3L104.3,46.1ZM77.9,201.8L76.7,204.8L72.6,205.6L71.9,204L66.8,202.9L66.6,202.1L68.7,200.5L69.7,198.5L72.1,200L74.6,200.4L77.1,199.9ZM146,77.1L145.2,77.2L144.9,74.6L146.1,72.9ZM139.7,104.7L138.3,105.9L136.3,104.4L137.1,102.2L139.8,101.5L140.9,102.2ZM128.8,127.2L128.3,127.6L129.6,122.3L130.8,121.7ZM122.2,151.3L121.8,151.5L122.3,146.1L123.5,142.9L124.2,143.9ZM121.5,159.5L121.1,162.1L122.1,163.1L121.3,164.9L117.9,163.7L117.5,162.6L118.6,159.7ZM130.2,132.3L129.9,131.2L131.8,129.8ZM4.6,234.3L4.6,234.3L4.6,234.3ZM132.1,325.7L132.1,325.7L132.1,325.7ZM131.1,329.6L131.1,329.6L131.1,329.6ZM129.8,321.5L129.8,321.5L129.8,321.5ZM132.8,321L131.9,323.5L130.1,319.9ZM134,320.8L134,320.8L134,320.8ZM240,394.7L238.2,398.4L239.6,400.3L237.7,401.5L237.8,405.6L236.7,406.2L235,401.8L232.7,401.8L230.3,396.3L232.4,395.8L233.2,393.6L235.5,396.1L235.5,393.2L237.5,391.3L239.8,391.7ZM223.3,406.7L220.8,407L216.5,406.2L215.9,400.6L212.8,398.7L212.5,387.7L215.6,388.7L217.9,385.3L218.7,386.3L218.9,382.9L217.3,382.9L216.1,386.2L214.3,386.9L213.1,384.9L215,382L219,381.4L220.5,380.3L222.7,376.4L225.9,374.4L226.3,379.8L225.1,382.6L225.3,386.8L228.8,387.6L229.1,390.1L225.9,391.2L225.3,395.1L221.9,399.4L222.5,401.9L221.3,404.4ZM228.3,397.7L229.6,402.9L227.5,403.9L224.6,402.9L223.6,399.1ZM233.4,405.2L235.9,405.9L234.3,408L231.5,406.7L231.5,404.8ZM229.6,407.1L228.8,406L230.5,403.6ZM240.8,403.7L238.6,404.7L239.2,403ZM240.8,396.7L240.8,396.7L240.8,396.7ZM228,406.1L228,406.1L228,406.1ZM225.2,405.9L225.2,405.9L225.2,405.9ZM228,395.8L228,395.8L228,395.8ZM229.4,379.5L229.4,379.5L229.4,379.5ZM256.6,401.2L253.9,400.7L254.2,398.5L256.7,399.9ZM290.8,456.7L289.2,457.2L286.6,460.3L286.4,462.5L284.5,464.8L280.5,465.7L279.3,468.8L275.5,467.2L272.6,468.1L267,466.5L264.6,466.7L263.1,471.1L258.5,471.7L256.6,470.1L247.4,463.5L245.4,460.6L246.1,458.9L243.7,456.9L245.2,454L251.9,450.3L252.2,449.5L257.7,446.5L258.5,445.2L260.7,446.6L261.8,444.7L264.6,446.6L269.3,448.1L272.2,448.1L271,449.9L274.8,453L276.7,451.1L275.6,449.2L279.6,450.5L283.3,453L284.2,452.1L288.2,453.1ZM258.9,505.6L261.4,506.3L265,505.2L266.1,503.3L268.7,504.9L272.4,504.4L271.5,501.6L274,500.1L273.5,496.2L279.6,492L281.5,492.6L287.2,496.8L290.5,498L295.3,497.5L298.5,495L300.3,500.6L303,501.6L301.7,502.6L301.4,506.3L298.4,504.6L293.1,504.8L291.9,505.7L286.5,505.6L284.7,504.7L281.9,505.8L280.4,508.3L278.1,506.7L276.3,507.1L276.5,511.6L280,514.3L281.1,517L285.7,521.1L290.7,524L294.2,527.9L294,529.1L287.9,525.1L283.6,524.1L280.4,524.8L279.9,523.4L276,521.1L272.5,517.8L275.2,517.2L270.1,513.1L269.3,509.1L264.8,506.8L262.8,512.6L259.8,509.9ZM286.5,529.7L286.5,529.7L286.5,529.7ZM290.6,527.6L286.6,528.3L284,527.7ZM287.1,526.6L287.1,526.6L287.1,526.6ZM273.7,519.8L273.7,519.8L273.7,519.8ZM269.1,510.3L266.1,509.3L266.9,507.8ZM269.6,512.6L269.6,512.6L269.6,512.6ZM272.9,516.8L272.9,516.8L272.9,516.8ZM273.6,521.3L273.6,521.3L273.6,521.3ZM274.9,520.6L274.9,520.6L274.9,520.6ZM267.1,514L265.2,511.2L265.4,508.6ZM294.5,530.9L294.5,530.9L294.5,530.9ZM301.5,532L302.4,533.3L294.8,529.5ZM318.4,820L316.9,793.3L318.6,788.1L313.7,783.5L313.6,780.8L307.9,774.6L307.1,769.8L303.3,757.3L313.5,750.4L400,776.1L400,820ZM0,13.8L0.9,13.9L3.9,13.2L0,13.2L0,6.6L0,6.6L0.5,6.2L4.7,7.2L5.7,5.7L3.2,5.5L1.7,3.8L5.2,3.3L1.6,1.8L1.6,0L10.6,0L10.6,0L12.8,2.3L13.3,5.8L13.1,7.6L15.6,8.9L14.5,4.6L15.9,2.9L16.3,5.4L17.8,3.1L20.9,0L30.2,0L30.2,0L28.1,3.6L26.3,5.8L25.7,8.2L27.4,9.9L26.7,7.8L32.2,0.3L33.8,0.7L36.1,3.6L38.1,5L40,5.2L42.9,6.8L45.6,9.3L44.5,5.6L45.9,4.7L47.8,4.6L52.5,5.6L50.2,4.2L47.2,3.8L45.8,3.1L43.3,3.7L41,3.4L38.7,2.3L36.3,0L36.3,0L74.2,0L74.2,0L72.9,2.4L72.8,3.7L74.4,1.1L77.2,0.8L78.3,1.9L77.8,3.4L79.3,3.6L80.4,4.8L79.6,6.3L79.6,6.3L80.6,8L80.3,8.9L81.7,11.7L79.9,12L76.2,10.9L77.5,12.4L81.4,13.4L81.4,14.4L83,14.1L82,15.8L83.4,16.8L81.2,19.8L79.7,20.6L81.4,21.1L82,23.1L80.1,25.2L76.4,25.9L69.9,24.9L69.2,23.7L68,23.9L66,22.4L64.1,23L59.7,21.5L59.8,22.4L65.7,25L66.9,26.6L63.6,27.2L55.9,26.6L52.7,26.4L47.7,26.7L48.2,23.9L45.5,26.7L41.8,24.1L41.9,25.2L43.4,26.3L42.1,27.5L40.4,26.9L38.6,27.9L36.5,26.2L36.6,21.4L35.5,20.6L35.9,23.6L34.9,24.9L33.1,25.6L29.5,21.6L29,17.9L27.7,20.8L27.5,23.9L28.5,25L26.4,26.1L25.3,24.6L25.5,22.6L23,19.7L21.8,16.9L21,19.3L23.2,21.2L23.7,22.6L22.9,24.3L23.4,26.1L22.7,28.5L20.1,28.6L17.9,25.3L17.1,29.3L12.6,29.7L10.7,28.2L9.1,24.9L4.1,27.3L1.2,26.7L0,25L0,13.8ZM18.9,0L18.3,0.6L16.5,0.6L15.6,0L18.9,0ZM378.7,519.7L375.1,521.4L372.7,520.3L367.5,523.3L366.2,526.4L364.3,527.4L365.7,530.3L359.1,533.8L352.4,532.1L348.8,533.3L345.8,535.7L340.1,537.6L339.9,533.4L337.8,530.8L333.1,528.3L334.2,526.6L332.7,522.4L334.5,521.5L335.8,517.8L331.9,515.7L330,513.3L329.4,510L331,507.1L334,508.5L333.7,511L336,510L343.9,509.2L345.4,508.5L353.9,507.6L358.4,502.5L364.5,498.8L367.5,499.6L371,498.9L372.8,500.2L377.1,499.8L377.4,503.7L374.9,504.5L374,507.2L375.1,511.8L372.9,515.7L375,516.4ZM305.5,520.4L303.6,521.2L302.1,526.7L300.8,527.6L301.5,532L294.8,529.5L294,529.1L294.2,527.9L290.7,524L285.7,521.1L281.1,517L280,514.3L276.5,511.6L276.3,507.1L278.1,506.7L280.4,508.3L281.9,505.8L284.7,504.7L286.5,505.6L291.9,505.7L293.1,504.8L298.4,504.6L301.4,506.3L304,505.7L303.2,509.8L303.6,512.2L307.5,514.4L305,515.7L307.5,518.2ZM188.1,445.2L191.7,444.1L199,448L197.8,451.1L200.2,452.1L201.9,453.8L202.9,456.8L201.2,459L200.2,458.5L198.6,461.2L199,465.4L197,465.7L192.4,462.7L192.4,458.9L191,460.3L187.3,460.5L187.6,457.6L184.1,456.7L181.4,454.4L180.3,451.7L178.4,452.4L176.4,448.1L182.1,445.2L185.8,447.1ZM369.2,405.9L364.5,408.3L363.3,413.9L364.5,417.3L361.3,416L356.4,418.7L354.2,416.7L352.2,419.5L351,418.7L342.2,420.6L340.9,419.4L332.5,420L328.2,421L322.5,423.3L320.6,427L318.5,428.3L317.4,422.7L313.9,421.1L314.6,418L317,415.7L316.3,411.8L311.3,402.8L319.2,400.4L323,395.3L323.1,388.5L325.1,385.5L327,385L327.4,383L325.5,383L325.3,379.4L327.5,376.8L330.7,376.2L331.6,372.7L332.9,371.6L335.5,371.3L337,372.4L338.8,371.1L340.7,371.4L342.3,373.8L344.3,371.2L347.6,370.8L351,372.1L351.5,375.3L353.3,377.3L353.3,380.5L356,381.5L359.1,385.2L361.9,385.8L362.6,388.4L367.3,388L370.3,391.1L367.8,394.9L362.9,395.5L362.6,397.7L365.1,399.3L367.2,404.2ZM226.9,489.1L226.7,486.4L228.3,485.7L232.7,488.3L233.4,485.7L236.6,485.7L237.5,487L242.8,484.5L246.1,483.8L246.2,482.7L249.8,482.9L252.4,484.7L252.5,482.8L250.1,477.5L255.9,472.9L256.6,470.1L258.5,471.7L263.1,471.1L264.6,466.7L267,466.5L272.6,468.1L275.5,467.2L279.3,468.8L279,471.2L281.7,475L281.6,478.3L277.8,478.4L278.8,481.6L277.6,482.3L278.3,486.6L275.9,488.5L275.2,490.6L268.2,492.2L264.7,494.9L258.6,494.6L248.6,493.6L246.6,489.7L239,491.9L238.4,493.5L234,493.1L232,493.3L227.4,491.4ZM166.7,541.7L164.5,540.6L166.7,541.7ZM225.2,603.1L222.2,608.2L223.5,609.6L222.8,615.2L224.5,622.6L223.4,627.9L216.9,635.5L216.8,638.3L219.2,644.6L222.6,646.5L225.2,652.6L232.4,657.6L238.2,678.4L236.2,679.8L239.8,685.1L242.3,692.7L242.3,697.4L243.9,706.3L242.5,711.7L244.4,717.3L244.3,720.8L240.6,723.6L240.3,726.7L246.7,735L247.2,738.3L250,743.6L254.7,743.7L263.8,745.8L269.7,754.8L221.6,789.8L203.1,807.3L184.4,811.4L174.7,813.2L171.3,811.1L173.1,807.9L172.6,803.2L163.5,799.6L161.4,797.3L155.4,795.4L154.6,793.2L149.7,789.8L149.7,786.3L91.2,736.5L88.3,733.9L81.6,727.9L52.2,701L53,696.7L55.4,684.6L66.4,679.2L72.8,677L77.2,678.4L79,675.8L86.2,676.2L89.6,675.7L95.1,670.5L101.8,668.7L109.1,665.3L107.2,663.6L107.9,658.4L115.9,657.3L117,655L121.7,654.5L132.9,656L135.3,651.8L131.5,646.9L130.3,641.8L130.9,628.8L130.7,625.5L127.1,621.2L129.9,621.6L135.5,619.1L137.9,616.9L144.2,614.2L148.5,614L153,610.2L159.8,607.7L171.8,607.3L175.2,605.4L180.1,605.3L182.5,604.3L191.2,604.4L195.1,606.8L197.2,606.8L204.5,603.8L206.6,602.1L210.6,603.9L213,601.9L219.3,604.3ZM310.1,538.2L309,535L311.1,529.5L312.4,530.9L314.5,529.7L318.5,532.5L320,536.1L320.7,542.7L323.6,546.3L325.5,546.5L326.6,548.8L325.2,551.1L324.7,554.9L322.1,557L323.1,558.8L320.1,560.5L318.2,557.1L314.8,555.9L312.6,551.2L313.1,548.1L311.9,542.8L312.2,538.7Z" fill="#0B3350" fill-opacity=".92" stroke="#F6F1E4" stroke-opacity=".34" stroke-width=".7" stroke-linejoin="round"/><path d="M254.2,546L254.2,546M121.6,410.3L118.8,410.2L116.9,406.1L114.4,408.9L111.5,407.3L110.2,404.9L112.9,403.1L117,398.5M380.2,481.2L376.2,480.9L373.4,483.8L368.6,482.8L372,474.9L370.6,471L371.8,469.5L377.3,469.6L379.1,468.2L377.3,467.5L375.9,464.6L373.3,463.9L372.1,461.1L368.7,459.8L368.1,456.8L366.4,454.6L363.7,453.8L361.7,454.8L354.1,452.8L352.2,454.6L349.5,455.2L348.3,457L346.3,458.2L345.9,460.7L341.2,463L337.8,466.1L334.9,464.4L332.2,465.5L326.5,465.9L324.3,465.4L322.8,467.3L321.6,465.8L316.4,463.7L317.6,456L319.6,456.1L317.2,450.8L318.9,446.4L322.2,440.2L323.9,439.4L323.6,434.6L319.4,430.4L318.5,428.3L320.6,427L322.5,423.3L328.2,421L332.5,420L340.9,419.4L342.2,420.6L351,418.7L352.2,419.5L354.2,416.7L356.4,418.7L361.3,416L364.5,417.3L363.3,413.9L364.5,408.3L369.2,405.9L372.4,404.5L373,402L375.7,401.6L376.9,400.1L380.5,398.7L387,402.7L385.7,404.4L388.2,408.5L393.6,406.8L395.8,407.7L398.6,412.5L400,413.2M366.9,537.5L368.6,534.4L367.7,531.4L369.6,529L368.6,527L366.2,526.4L367.5,523.3L372.7,520.3L375.1,521.4L378.7,519.7M254.9,643.4L255.7,652.1L249.5,656.4L243.1,663.9L244.7,668.8L244.6,671.6L241.8,676.4L238.2,678.4L232.4,657.6L225.2,652.6L222.6,646.5L219.2,644.6L216.8,638.3L216.9,635.5L223.4,627.9L224.5,622.6L222.8,615.2L223.5,609.6L222.2,608.2L225.2,603.1M260.7,446.6L258.5,445.2L257.7,446.5L252.2,449.5L251.9,450.3L245.2,454L243.7,456.9L246.1,458.9L245.4,460.6L247.4,463.5L256.6,470.1L255.9,472.9L250.1,477.5L252.5,482.8L252.4,484.7L249.8,482.9L246.2,482.7L246.1,483.8L242.8,484.5L237.5,487L236.6,485.7L233.4,485.7L232.7,488.3L228.3,485.7L226.7,486.4L226.9,489.1L227.4,491.4L232,493.3L234,493.1L234.1,496.5L232.3,495.9L230.6,498.8L227.5,499.6L225.4,497.9L225.4,500L223.5,505.1L219.5,500.7L218.7,498.6L214.6,504.5L208.7,504.6L206.8,502.1L206.6,499.3L204.1,499.2L201.6,502.3L201.4,499.3L208.2,489.4L208.5,487.5L211.2,487.8L212.6,486.3L218.5,486.1L219.9,484.1L224.1,484.9L226.7,486.4M229.7,359.7L231.3,360.8L231.8,356.7L230.8,353.4L232,350.3L234.8,347.3L235,343.4L232.8,337.5L234.8,336.8L235.5,333.3L231.3,329.6L231.4,323.2L230.1,319.8L230.2,315.2L228.8,312.1L229.4,308.6L231.4,304.4L234.4,302.6L237.7,302.9L238.4,301L237.7,297.8L235.4,296.7L238.4,288.1L238.4,281.8L237.5,278.6L239.8,277.9L241.6,276.1L241,274L244.5,266.9L242.6,262.9L244.3,260.2L244.7,257L246.6,254.3L249.4,255.4L250.1,252.5L249.3,248.8L250.2,248.2L257.3,249.3L258.2,247.7L256.9,247.2L257.9,244.5L256.4,241.6L258.4,241L265.4,245.6L269,246.3L273.9,250.4L273.5,251.4L274.5,256.2L275.8,256.2L276,259L278.6,262.8L278.3,266.8L279.3,270L282.3,273.8M139.3,530L142.2,532.1L141.5,533.9L147.1,535.8L148.4,537.4L150.7,537.3L152.7,538.9L158.1,539.3L158.7,537.6L163.9,539.5L164.5,540.6L166.7,541.7L169.3,543.5L174.3,543.8L178.9,542.9M83.7,592.2L83.6,587.6L87.1,583.4L88.6,583.2L86.6,578.2L87.6,575.5L90.6,572.1L89.2,571L87.1,564.8L91.4,564.9L93.1,561.7L92.5,559.5L94.4,558.3L94.6,550.9L101.3,546.1L98.8,544.2L98.7,541.2L94.5,540.1L92.1,541.3L85.6,539.5L86.2,537L81.3,538.2M316.4,463.7L314,465L311.2,463.2L304.5,465L303.9,467.7L301.2,470.1L299,469.5L298.1,470.9L293.5,473L293.5,475.4L286.5,476.8L281.7,475L279,471.2L279.3,468.8L280.5,465.7L284.5,464.8L286.4,462.5L286.6,460.3L289.2,457.2L290.8,456.7L293.2,457.5L294.9,455L297.6,457L297.9,458.8L303.5,455.5L310.5,453.8L313.7,455.3L317.6,456M260,504.7L258.5,502.1L258.5,498.3L256.5,497.6L258.6,494.6L264.7,494.9L268.2,492.2L275.2,490.6L275.9,488.5L277.3,488.4L279.6,492L273.5,496.2L274,500.1L271.5,501.6L272.4,504.4L268.7,504.9L266.1,503.3L265,505.2L261.4,506.3L258.9,505.6M377.1,499.8L372.8,500.2L371,498.9L367.5,499.6L364.5,498.8L358.4,502.5L353.9,507.6L345.4,508.5L343.9,509.2L336,510L333.7,511L334,508.5L331,507.1L329.4,510L330,513.3L331.9,515.7L335.8,517.8L334.5,521.5L332.7,522.4L334.2,526.6L333.1,528.3L327.1,530.4L327.5,525.5L324.5,525.3L321.1,522.2L318.4,520.9L316.1,526.2L315.9,525.5L309,523.4L305.5,520.4L307.5,518.2L305,515.7L307.5,514.4L303.6,512.2L303.2,509.8L304,505.7L301.4,506.3L301.7,502.6L303,501.6L300.3,500.6L298.5,495L302.7,491.7L308.1,491.2L312.8,494.2L313.4,497.1L319.1,499.1L319.3,502.8L325.6,504.9L328.3,502.4L330.2,503.1L328.9,505.3L331,507.1M252.4,524.1L252.4,524.1M369.2,405.9L367.2,404.2L365.1,399.3L362.6,397.7L362.9,395.5L367.8,394.9L370.3,391.1L367.3,388L362.6,388.4L361.9,385.8L359.1,385.2L356,381.5L353.3,380.5L353.3,377.3L351.5,375.3L351,372.1L347.6,370.8L344.3,371.2L342.3,373.8L340.7,371.4L338.8,371.1L337,372.4L335.5,371.3L332.9,371.6L331.3,367.4L328.5,364.6L327.6,365.1L327.4,360.6L323.8,358.4L324,355.3L325,354.4L322.1,350.4L320.1,344.4L321,336.6M316.4,325.8L318.3,321L321.3,315.4L326.7,298.4L326.7,294.6L323.8,291.8L319,289.9L316.1,288L317.5,284.3L316.8,282.4L314.3,281.2L312.7,277L309.8,275.5L310.2,273.7L309,272.7L308.6,268.7L309.4,267.1L307,262.9L300.7,255.9L300.2,254.5L301.7,247L301.4,245.4L297.3,242.2L294.2,241.7L292.2,238.7L292.3,235.1L290.5,234.1L292.3,232.1L292.9,228.4L294.9,226.6L294.9,223.6L297.8,223.8L296.8,221M294.1,391.9L299.7,392.9L302.7,392.3L304.9,394.2L304.8,398.1L305.7,399.5L289.6,402.3L285.8,402.7M292,392.1L292.3,392.1M308.1,491.2L313.7,488.5L317,477.8L317.7,473.5L319.2,470.7L322.8,467.3M348.3,457L351.1,457.3L355.3,462L362.6,467.2L364.9,470.4L366.1,477.6L368.6,482.8M290.8,456.7L288.2,453.1L284.2,452.1L283.3,453L279.6,450.5L275.6,449.2L276.7,451.1L274.8,453L271,449.9L272.2,448.1L269.3,448.1L264.6,446.6L261.8,444.7L260.7,446.6L261.6,442.1L259.3,439.5L258,436.2L258.6,433.4L256.9,430.6L257.1,428.7L253.4,425.3L254.8,420.7L253.1,415.9M252.7,414.4L252.6,413.6M305.7,399.5L309.9,400.2L311.3,402.8L316.3,411.8L317,415.7L314.6,418L313.9,421.1L317.4,422.7L318.5,428.3M292.3,232.1L291.2,230.5L292.1,226.5L290.6,224.6L287.2,223.8L284.3,221.7L281.8,224.5L279.5,225L278.4,228.6L278.7,233.6L279.5,236.4L278.3,238.2L277.4,241.7L272.3,240.5L270.6,242.8L266.6,242.9L265.8,241.5L261.9,237.4L259.8,238.9L260.2,240.5L258.4,241M184.3,820L184.4,811.4L203.1,807.3L221.6,789.8L269.7,754.8L286.6,757.1L295.6,762.8L303.3,757.3L307.1,769.8L307.9,774.6L313.6,780.8L313.7,783.5L318.6,788.1L316.9,793.3L318.4,820M207.7,424.3L207.8,427.4L206.7,431.4L205,431.5L205,433.3L206.9,434.2L204.9,437.5L205.1,439.4L199.8,441.1L201.5,444L201.1,447.8L199.5,449.6L200.2,452.1L197.8,451.1L199,448L191.7,444.1L188.1,445.2L185.8,447.1L182.1,445.2M127.1,621.2L130.7,625.5L130.9,628.8L130.3,641.8L131.5,646.9L135.3,651.8L132.9,656L121.7,654.5L117,655L115.9,657.3L107.9,658.4L107.2,663.6L109.1,665.3L101.8,668.7L95.1,670.5L89.6,675.7L86.2,676.2L79,675.8L77.2,678.4L72.8,677L66.4,679.2L55.4,684.6L53,696.7L51.6,696.5L50.7,702.7L44.3,701.8L40.5,703.8L35.2,702.8L28.7,699.6L23.6,700L23.6,703L18.3,708.2L14.9,708.3L7.5,721.1L0,724.4M53,696.7L52.2,701L49.5,715.9L15,708.7L8.2,737.9L1.3,738.7L0,739.2M316.1,526.2L313.8,527.8L314.5,529.7L312.4,530.9L311.1,529.5L309,535L310.1,538.2M302.4,533.3L301.5,532L300.8,527.6L302.1,526.7L303.6,521.2L305.5,520.4M212.2,528.5L212.7,528.3M52.2,701L81.6,727.9L88.3,733.9L69.5,731.2L65.8,820M88.3,733.9L91.2,736.5L149.7,786.3L149.7,789.8L154.6,793.2L155.4,795.4L161.4,797.3L163.5,799.6L172.6,803.2L173.1,807.9L171.3,811.1L174.7,813.2L184.4,811.4M333.1,528.3L337.8,530.8L339.9,533.4L340.1,537.6L337.3,540.8L332.8,542L330.5,545.2L325.5,546.5L323.6,546.3L320.7,542.7L320,536.1L323.2,532.1L325.2,532.5L327.1,530.4M291,383.5L294.1,380.1L296.4,378.5L301.1,377.5L308.9,377.1L313.1,374.5L314.6,376.3L317.9,376.2L323.1,379L325.3,379.4L325.5,383L327.4,383L327,385L325.1,385.5L323.1,388.5L323,395.3L319.2,400.4L311.3,402.8M226.9,489.1L227.4,491.4M386.6,637.5L384.8,641.7L387.6,647.6L386.7,654.7L392.4,665.3L400,693.2M400,776.1L313.5,750.4L303.3,757.3M269.7,754.8L263.8,745.8L254.7,743.7L250,743.6L247.2,738.3L246.7,735L240.3,726.7L240.6,723.6L244.3,720.8L244.4,717.3L242.5,711.7L243.9,706.3L242.3,697.4L242.3,692.7L239.8,685.1L236.2,679.8L238.2,678.4M305.6,359.7L309.5,356.4L315.1,357.4L319.1,359.8L321.3,358.2L323.8,358.4M332.9,371.6L331.6,372.7L330.7,376.2L327.5,376.8L325.3,379.4M320,536.1L318.5,532.5L314.5,529.7M234,493.1L238.4,493.5L239,491.9L246.6,489.7L248.6,493.6L258.6,494.6M213.1,528.1L214.4,524.6L208.2,522L207.7,520.1L209.1,517.8L205.9,513.5L209.4,512.1L209.9,510.3L207.2,507L208.7,504.6M298.5,495L295.3,497.5L290.5,498L287.2,496.8L281.5,492.6L279.6,492M275.9,488.5L278.3,486.6L277.6,482.3L278.8,481.6L277.8,478.4L281.6,478.3L281.7,475M320.1,560.5L323.1,558.8L322.1,557L324.7,554.9L325.2,551.1L326.6,548.8L325.5,546.5M340.1,537.6L345.8,535.7L348.8,533.3L352.4,532.1L359.1,533.8L365.7,530.3L364.3,527.4L366.2,526.4M212.6,486.3L212.2,481.2L213.8,474.8L215.8,471.1L210.8,469.3L205.7,469.4L202.9,466.2M201.2,459L201.4,460.6L203.9,462.4L202.9,466.2L199,465.4L198.6,461.2L200.2,458.5L201.2,459L202.9,456.8L201.9,453.8L200.2,452.1M216.5,406.2L220.8,407L223.3,406.7M166.7,541.7L164.5,540.6M176.4,448.1L178.4,452.4L180.3,451.7L181.4,454.4L184.1,456.7L187.6,457.6L187.3,460.5L191,460.3L192.4,458.9L192.4,462.7L197,465.7L199,465.4M279.3,468.8L275.5,467.2L272.6,468.1L267,466.5L264.6,466.7L263.1,471.1L258.5,471.7L256.6,470.1M301.4,506.3L298.4,504.6L293.1,504.8L291.9,505.7L286.5,505.6L284.7,504.7L281.9,505.8L280.4,508.3L278.1,506.7L276.3,507.1L276.5,511.6L280,514.3L281.1,517L285.7,521.1L290.7,524L294.2,527.9L294,529.1M294.8,529.5L301.5,532" fill="none" stroke="#F6F1E4" stroke-opacity=".11" stroke-width=".5"/></svg>